#!OML:ASF F:\VICON\USERDATA\INSTALL\rory3\rory3.ASF
:FULLY-SPECIFIED
:DEGREES
2204
root 0.301458 15.4376 -0.849371 4.81459 -13.3985 6.10892
lowerback 10.729 -5.50054 -6.2302
upperback 1.74643 -7.8392 4.83471
thorax -2.60696 -3.89019 9.55307
lowerneck -24.911 3.79395 -8.19212
upperneck 16.748 8.26148 -0.850303
head 9.05585 3.1911 2.19807
rclavicle 1.26029e-013 -6.52014e-014
rhumerus -71.6213 -34.4432 -41.5405
rradius 47.075
rwrist -57.6308
rhand -0.515472 17.1348
rfingers 7.12502
rthumb 25.0965 -11.236
lclavicle 1.26029e-013 -6.52014e-014
lhumerus -9.74022 21.8947 67.412
lradius 138.833
lwrist 6.71907
lhand -1.99074 7.58264
lfingers 7.12502
lthumb 23.6823 36.1438
rfemur -60.5416 0.772493 11.519
rtibia 54.8414
rfoot 7.99292 0.862775
rtoes 15.0856
lfemur 15.4691 5.34745 -19.9758
ltibia 26.6021
lfoot -33.646 5.34432
ltoes -34.6698
2205
root 0.228495 15.4136 -0.788805 4.80428 -11.9239 5.94829
lowerback 10.5421 -5.41284 -5.90752
upperback 1.93641 -7.68056 4.67826
thorax -2.40234 -3.82695 9.14883
lowerneck -24.7972 3.68677 -8.08318
upperneck 16.4393 8.07513 -0.975918
head 8.94712 3.11382 2.10208
rclavicle 2.3059e-014 -1.90833e-014
rhumerus -73.7126 -35.5112 -40.668
rradius 45.8025
rwrist -57.2712
rhand -0.90194 17.4117
rfingers 7.12502
rthumb 24.7262 -11.0104
lclavicle 2.3059e-014 -1.90833e-014
lhumerus -9.71534 21.9304 67.5086
lradius 138.847
lwrist 6.80995
lhand -1.67546 7.61654
lfingers 7.12502
lthumb 23.9846 36.1382
rfemur -60.1311 -0.276442 12.0888
rtibia 55.4626
rfoot 6.22526 0.625844
rtoes 14.1606
lfemur 15.35 4.75389 -19.0755
ltibia 27.2486
lfoot -33.8256 4.76253
ltoes -35.0944
2206
root 0.147332 15.4098 -0.720183 4.76297 -10.3478 5.69389
lowerback 10.3943 -5.2187 -5.69655
upperback 2.02198 -7.39219 4.65016
thorax -2.319 -3.68894 8.9516
lowerneck -24.5081 3.45846 -8.22566
upperneck 16.3206 7.76719 -0.927723
head 8.86205 2.97703 2.08835
rclavicle -5.96354e-015 -3.65764e-014
rhumerus -75.4382 -36.3649 -40.0467
rradius 44.9274
rwrist -56.9705
rhand -1.15106 17.5971
rfingers 7.12502
rthumb 24.4874 -10.8575
lclavicle -5.96354e-015 -3.65764e-014
lhumerus -9.66808 21.2778 68.1875
lradius 138.67
lwrist 6.74657
lhand -1.59733 7.57664
lfingers 7.12502
lthumb 24.0596 36.0884
rfemur -59.286 -1.29447 12.6882
rtibia 55.5685
rfoot 4.48302 0.57687
rtoes 14.2566
lfemur 15.1221 4.25945 -17.8953
ltibia 28.0938
lfoot -33.8117 3.58975
ltoes -35.2536
2207
root 0.0551684 15.4371 -0.667267 4.73746 -8.64391 5.01491
lowerback 10.6846 -4.88735 -5.29156
upperback 1.92546 -6.9077 4.80219
thorax -2.70319 -3.42524 8.88994
lowerneck -24.3727 3.09579 -8.60037
upperneck 16.7002 7.33306 -0.5659
head 8.95931 2.77638 2.21759
rclavicle -4.25399e-014 1.43125e-014
rhumerus -76.8527 -37.2416 -39.4888
rradius 44.2707
rwrist -57.0956
rhand -1.14671 17.8024
rfingers 7.12502
rthumb 24.4916 -10.6516
lclavicle -4.25399e-014 1.43125e-014
lhumerus -9.66983 19.7868 69.3478
lradius 138.422
lwrist 6.47213
lhand -2.12721 7.46772
lfingers 7.12502
lthumb 23.5514 36.0457
rfemur -58.1762 -1.97151 13.5612
rtibia 55.3015
rfoot 2.94238 0.18442
rtoes 16.2162
lfemur 14.7386 3.79081 -16.0686
ltibia 28.9383
lfoot -33.4341 2.06455
ltoes -35.6036
2208
root -0.0396347 15.4842 -0.644053 4.50456 -6.88234 4.10346
lowerback 11.6343 -4.41893 -4.76224
upperback 1.79783 -6.23475 4.99055
thorax -3.52334 -3.04704 8.84708
lowerneck -24.3818 2.66131 -8.85072
upperneck 17.1669 6.78049 -0.223731
head 9.12583 2.52018 2.31141
rclavicle -1.55052e-014 -6.36111e-015
rhumerus -77.5455 -38.0958 -39.4937
rradius 44.0077
rwrist -58.0942
rhand -1.14819 17.7687
rfingers 7.12502
rthumb 24.4902 -10.6855
lclavicle -1.55052e-014 -6.36111e-015
lhumerus -9.36246 17.7971 70.8423
lradius 138.034
lwrist 6.18789
lhand -2.4003 7.32185
lfingers 7.12502
lthumb 23.2894 35.9333
rfemur -56.9218 -2.37386 14.5356
rtibia 54.9818
rfoot 1.80203 -0.763716
rtoes 18.024
lfemur 14.4267 3.17023 -13.9293
ltibia 29.5939
lfoot -32.5382 0.442918
ltoes -36.2986
2209
root -0.132537 15.5523 -0.582044 4.27113 -4.48021 3.88317
lowerback 11.8979 -4.20163 -4.71941
upperback 1.80551 -5.94405 4.95851
thorax -3.72154 -2.89111 8.78388
lowerneck -24.7328 2.29849 -8.64401
upperneck 17.6055 6.28576 -0.260984
head 9.37209 2.27387 2.21721
rclavicle 7.71285e-014 -3.18055e-014
rhumerus -77.0965 -38.8792 -40.1939
rradius 44.0451
rwrist -59.3871
rhand -0.652542 17.2973
rfingers 7.12502
rthumb 24.9652 -11.0918
lclavicle 7.71285e-014 -3.18055e-014
lhumerus -8.88166 15.7881 72.3817
lradius 137.575
lwrist 5.79318
lhand -1.93428 7.50141
lfingers 7.12502
lthumb 23.7364 36.0555
rfemur -55.6671 -3.81038 14.7923
rtibia 54.7561
rfoot 1.02203 -1.54571
rtoes 18.3538
lfemur 13.8707 1.97781 -12.5059
ltibia 30.2891
lfoot -31.4018 -1.84983
ltoes -36.3941
2210
root -0.226037 15.6234 -0.504963 3.74083 -1.59938 5.28058
lowerback 12.1031 -4.05473 -6.36078
upperback 1.92216 -5.98574 4.49759
thorax -3.58156 -2.90399 9.24199
lowerneck -25.2462 1.93706 -8.42533
upperneck 18.0579 5.77589 -0.183343
head 9.64738 2.03564 2.15886
rclavicle -3.10104e-014 -6.36111e-015
rhumerus -75.5685 -39.5804 -41.3576
rradius 44.1167
rwrist -59.764
rhand -0.0970535 17.1123
rfingers 7.12502
rthumb 25.4974 -11.2018
lclavicle -3.10104e-014 -6.36111e-015
lhumerus -8.47021 13.7601 73.9507
lradius 137.129
lwrist 5.12931
lhand -1.68108 7.48726
lfingers 7.12502
lthumb 23.9792 36.0096
rfemur -54.3014 -6.08101 13.1991
rtibia 54.8082
rfoot 0.409724 -1.8925
rtoes 17.0882
lfemur 13.375 0.213395 -12.8824
ltibia 30.8932
lfoot -29.7182 -4.50135
ltoes -37.1274
2211
root -0.308807 15.7204 -0.454581 3.74123 0.958128 4.52461
lowerback 12.1541 -3.83661 -5.81749
upperback 1.92846 -5.61738 4.62925
thorax -3.71713 -2.71716 9.0365
lowerneck -25.5318 1.4264 -8.63764
upperneck 18.395 5.08888 0.292452
head 9.8264 1.74553 2.27252
rclavicle -6.24184e-014 2.38542e-014
rhumerus -73.3028 -40.1096 -42.6598
rradius 44.4363
rwrist -59.6049
rhand -0.167678 17.1277
rfingers 7.12502
rthumb 25.4298 -11.1961
lclavicle -6.24184e-014 2.38542e-014
lhumerus -7.99093 11.553 75.6541
lradius 136.584
lwrist 4.15885
lhand -1.94892 7.2169
lfingers 7.12502
lthumb 23.7224 35.7728
rfemur -53.1601 -7.39911 13.818
rtibia 54.6069
rfoot -0.37911 -2.51593
rtoes 15.5235
lfemur 12.3146 -1.13644 -10.8662
ltibia 31.4981
lfoot -27.6818 -7.26063
ltoes -38.3654
2212
root -0.385554 15.8234 -0.406945 3.60044 3.51571 4.43961
lowerback 12.3191 -3.527 -5.95498
upperback 1.92091 -5.22938 4.57253
thorax -3.88397 -2.51141 9.02484
lowerneck -25.6596 0.801242 -8.98454
upperneck 18.7243 4.2492 0.869997
head 9.98432 1.39176 2.41741
rclavicle 3.1408e-014 1.59028e-014
rhumerus -70.7153 -40.5675 -43.5428
rradius 45.0228
rwrist -59.5081
rhand -0.439442 16.9891
rfingers 7.12502
rthumb 25.1694 -11.3715
lclavicle 3.1408e-014 1.59028e-014
lhumerus -7.52336 9.27055 77.4066
lradius 135.958
lwrist 3.30552
lhand -2.26631 6.87705
lfingers 7.12502
lthumb 23.418 35.4721
rfemur -51.7262 -8.72125 13.586
rtibia 54.1542
rfoot -1.02656 -3.11183
rtoes 14.9932
lfemur 11.1955 -2.60025 -9.67991
ltibia 32.1517
lfoot -25.3164 -10.2858
ltoes -36.9991
2213
root -0.455635 15.9455 -0.354023 3.67663 6.3435 4.14091
lowerback 12.1816 -3.29048 -5.78096
upperback 1.84094 -4.88396 4.55303
thorax -3.97734 -2.33233 8.85231
lowerneck -25.5883 0.0857436 -9.32582
upperneck 18.9234 3.22343 1.5646
head 10.0778 0.975801 2.56956
rclavicle 3.61788e-014 -6.83819e-014
rhumerus -67.9581 -40.7918 -44.0854
rradius 45.8592
rwrist -60.037
rhand -0.856052 17.2058
rfingers 7.12502
rthumb 24.7702 -11.2102
lclavicle 3.61788e-014 -6.83819e-014
lhumerus -7.27699 6.88607 79.1407
lradius 135.386
lwrist 2.67105
lhand -2.43493 6.58929
lfingers 7.12502
lthumb 23.2562 35.2049
rfemur -50.1344 -10.1799 13.5711
rtibia 53.0764
rfoot -1.48461 -3.96004
rtoes 14.6498
lfemur 9.52181 -4.10903 -8.20472
ltibia 32.9732
lfoot -22.5767 -13.6305
ltoes -34.5291
2214
root -0.523484 16.0939 -0.303376 3.73624 9.64604 3.64265
lowerback 11.982 -3.18145 -5.3566
upperback 1.78676 -4.67145 4.56886
thorax -3.99899 -2.22725 8.58264
lowerneck -25.3993 -0.713984 -9.63575
upperneck 18.976 2.01826 2.38165
head 10.1197 0.501432 2.7295
rclavicle 5.80451e-014 -2.8625e-014
rhumerus -65.0499 -40.9231 -44.3155
rradius 47.011
rwrist -61.2785
rhand -1.032 17.2799
rfingers 7.12502
rthumb 24.6015 -11.1592
lclavicle 5.80451e-014 -2.8625e-014
lhumerus -6.86266 4.39689 80.8145
lradius 134.655
lwrist 1.85786
lhand -2.45218 6.26896
lfingers 7.12502
lthumb 23.2396 34.8867
rfemur -48.2091 -11.9434 13.7429
rtibia 51.5558
rfoot -1.92139 -5.02285
rtoes 14.4416
lfemur 7.46974 -5.71644 -6.37891
ltibia 33.7431
lfoot -19.1172 -17.1621
ltoes -33.1283
